# xmcd
#
# Track frame offsets:
# 150
# 13926
# 27803
# 42513
# 56282
# 71066
# 84753
# 99250
# 115178
# 126655
# 136611
# 146621
# 159611
# 174627
# 189483
# 204857
# 217843
# 233090
# 248250
# 262714
# 278384
# 291433
#
# Disc length: 4035 seconds
#
#
# Revision: 1
# Processed by: cddbd v1.5.1PL0 Copyright (c) Steve Scherf et al.
# Submitted via: FreeRIP 2.93 
#
DISCID=250fc116
DTITLE=Louis Armstrong - Jazz and dintorni - Vol. 47
DYEAR=1900
DGENRE=Jazz
TTITLE0=Struttin' with some barbecue
TTITLE1=Fireworks
TTITLE2=A monday date
TTITLE3=I'm not a rough
TTITLE4=Once in a while
TTITLE5=S.O.L. blues
TTITLE6=Ory's creole trombone
TTITLE7=Savoy blues
TTITLE8=Canal Street blues
TTITLE9=Mandy Lee blues
TTITLE10=Workingman blues
TTITLE11=I'm going away to wear you off my mind
TTITLE12=West End blues
TTITLE13=Basin Street blues
TTITLE14=Squeeze me
TTITLE15=Muggles
TTITLE16=St. James Infirmary
TTITLE17=Sugar foot strut
TTITLE18=Savoyager's stomp
TTITLE19=Chicago breakdown
TTITLE20=Krooked blues
TTITLE21=Zulu's ball
EXTD=
EXTT0=
EXTT1=
EXTT2=
EXTT3=
EXTT4=
EXTT5=
EXTT6=
EXTT7=
EXTT8=
EXTT9=
EXTT10=
EXTT11=
EXTT12=
EXTT13=
EXTT14=
EXTT15=
EXTT16=
EXTT17=
EXTT18=
EXTT19=
EXTT20=
EXTT21=
PLAYORDER=
